<svg version="1.2" baseProfile="tiny-ps" xmlns="http://www.w3.org/2000/svg" viewBox="0 0 38 39" width="38" height="39">
	<title>Jolly UI free</title>
	<style>
		tspan { white-space:pre }
		.shp0 { fill: #EBB72D } 
	</style>
	<g id="Jolly UI free">
		<g id="&lt;Group&gt;">
			<g id="&lt;Group&gt;">
				<path id="&lt;Compound Path&gt;" fill-rule="evenodd" class="shp0" d="M36.37 27.12C35.29 28.31 34.82 30.1 33.43 30.97C32.36 32.16 31.37 33.44 29.81 34.13C27.43 36.27 24.01 37.38 20.31 38.21C17.53 38.28 15.25 38.24 13.07 37.75C12.38 37.6 11.61 37.52 11.04 37.3C10.95 37.27 11.04 37.09 10.81 37.07C10.38 37.05 9.92 36.39 9.23 36.4C4.71 33.45 1.84 28.85 0.63 22.6C0.56 18.9 0.54 15.27 1.76 12.87C3.06 9.57 5.08 6.99 7.19 4.5C8.45 3.8 9.45 2.84 11.04 2.47C12.53 1.33 14.19 0.35 16.69 0.21L17.14 0.21C17.1 0.01 17.23 0 17.37 -0.02C19.72 -0.33 22.39 0.5 24.61 0.66C25.15 1.1 26 1.23 26.64 1.56C27.35 1.83 27.84 2.33 28.68 2.47C29.41 3.39 30.75 3.72 31.39 4.73C32.32 5.46 33.15 6.29 33.88 7.22C35.44 8.98 36.57 11.16 37.5 13.55C37.68 14.14 37.5 14.38 37.73 15.13C38.72 18.43 37.53 24.46 36.37 27.12ZM34.79 16.04C34.3 16.08 34.68 15.24 34.56 14.91C34.09 14.4 34.1 13.41 33.66 12.87C33.41 12.07 32.69 11.72 32.52 10.84C31.5 9.75 30.6 8.53 29.58 7.44C27.92 6.39 26.47 5.13 24.38 4.5C24.24 4.49 24.11 4.47 24.15 4.28C22.04 3.98 20.04 3.56 17.6 3.6C17.55 3.78 17.41 3.86 17.14 3.83L16.24 3.83C12.63 5.19 9.83 7.37 7.19 9.71C6.61 10.86 6.1 12.08 5.38 13.1C4.95 14.48 4.53 15.87 4.25 17.4C4.13 19.27 4.22 19.95 4.25 21.92C5.4 27.25 8.01 31.13 12.17 33.46C13.96 33.93 15.81 34.33 18.05 34.36C21.46 34.08 24.23 33.15 26.42 31.65C27.64 31.06 28.56 30.17 29.58 29.38C30.49 28.41 31.39 27.42 32.3 26.44C32.59 25.68 32.97 25.01 33.43 24.41C33.71 23.64 33.91 22.78 34.33 22.15C34.6 20.23 34.92 18.36 34.79 16.04ZM31.62 14.68C31.81 15.78 31.09 15.97 30.49 16.26C29.89 16.57 29.63 17.22 28.91 17.4C27.74 18.04 26.79 18.9 25.74 19.66C25.8 20.58 26.16 21.19 26.42 21.92C26.03 24.17 28.2 26 26.64 27.35C24.91 27.13 24.37 25.7 23.03 25.09C22.67 24.16 21.85 23.7 21.44 22.82C21.26 22.98 20.82 23.18 20.76 22.82C19.13 23.31 17.93 24.22 16.69 25.09C16.07 25.52 15.58 26.09 14.88 26.44C14.24 26.79 13.92 27.59 13.07 27.12C12.57 26.72 12.56 26 13.07 25.54C13.1 24.74 13.44 24.25 13.75 23.73C13.93 22.25 14.54 21.21 14.88 19.88C14.53 18.58 12.92 18.53 12.17 17.62C11.29 16.84 9.91 16.56 9.68 15.13C10.75 13.61 13.54 14.61 15.56 14.68C16.28 14.72 16.32 14.08 17.14 14.23C18 12.3 18.82 10.32 19.41 8.12C19.73 8 19.96 7.77 20.08 7.44L20.54 7.44C21.7 7.41 21.31 8.93 21.89 9.48C22.14 10.36 22.52 11.12 23.03 11.74C23.08 12.66 23.45 13.28 23.7 14C25.35 14.09 27.39 13.79 28.68 14.23C29.77 14.09 31.12 13.73 31.62 14.68ZM26.42 16.49C26.42 16.37 26.23 16.23 26.19 16.49C26.19 16.62 26.37 16.75 26.42 16.49Z" />
			</g>
		</g>
	</g>
</svg>