<svg version="1.2" baseProfile="tiny-ps" xmlns="http://www.w3.org/2000/svg" viewBox="0 0 38 39" width="38" height="39">
	<title>Jolly UI free</title>
	<style>
		tspan { white-space:pre }
		.shp0 { fill: green } 
	</style>
	<g id="Jolly UI free">
		<g id="&lt;Group&gt;">
			<g id="&lt;Group&gt;">
				<path id="&lt;Compound Path&gt;" fill-rule="evenodd" class="shp0" d="M35.87 27.47C34.8 28.65 34.33 30.45 32.93 31.31C31.87 32.51 30.88 33.78 29.32 34.48C26.93 36.61 23.51 37.72 19.81 38.55C17.03 38.62 14.76 38.58 12.58 38.09C11.89 37.94 11.11 37.86 10.54 37.64C10.45 37.61 10.55 37.43 10.32 37.41C9.88 37.39 9.43 36.73 8.73 36.74C4.21 33.79 1.35 29.2 0.14 22.94C0.06 19.25 0.05 15.61 1.27 13.21C2.57 9.92 4.59 7.33 6.7 4.85C7.95 4.14 8.95 3.18 10.54 2.81C12.04 1.67 13.7 0.69 16.2 0.55L16.65 0.55C16.61 0.35 16.74 0.34 16.88 0.32C19.22 0.01 21.89 0.85 24.11 1C24.65 1.44 25.5 1.57 26.15 1.91C26.86 2.18 27.34 2.67 28.18 2.81C28.92 3.74 30.25 4.06 30.9 5.07C31.82 5.8 32.65 6.64 33.39 7.56C34.94 9.32 36.08 11.5 37.01 13.89C37.18 14.48 37 14.73 37.23 15.48C38.23 18.77 37.03 24.8 35.87 27.47ZM34.29 16.38C33.8 16.42 34.19 15.58 34.06 15.25C33.6 14.74 33.6 13.75 33.16 13.21C32.91 12.41 32.2 12.07 32.03 11.18C31.01 10.09 30.11 8.88 29.09 7.79C27.43 6.73 25.98 5.47 23.89 4.85C23.75 4.83 23.62 4.81 23.66 4.62C21.55 4.32 19.55 3.9 17.1 3.94C17.05 4.12 16.91 4.21 16.65 4.17L15.74 4.17C12.13 5.54 9.33 7.71 6.7 10.05C6.12 11.21 5.61 12.43 4.89 13.44C4.46 14.82 4.04 16.21 3.75 17.74C3.63 19.61 3.73 20.29 3.75 22.26C4.91 27.59 7.51 31.47 11.67 33.8C13.47 34.27 15.32 34.68 17.55 34.7C20.97 34.42 23.73 33.49 25.92 31.99C27.14 31.4 28.06 30.51 29.09 29.73C29.99 28.75 30.9 27.77 31.8 26.79C32.09 26.02 32.48 25.35 32.93 24.75C33.22 23.98 33.42 23.13 33.84 22.49C34.11 20.57 34.43 18.71 34.29 16.38ZM28.18 19.77C28.28 21.23 28.38 21.74 27.73 22.72C25.98 23.75 22.15 22.72 20.04 23.39C19.76 24.24 19.58 25.2 19.59 26.34C19.19 26.54 19.09 27.04 19.14 27.69C19.06 28.22 18.44 28.2 18.23 28.59C17.13 28.41 16.76 27.5 16.42 26.56C15.4 25.47 14.75 24.01 13.48 23.17C13.05 22.54 12.52 22.02 11.9 21.58C11.61 20.89 10.54 20.98 10.54 20C10.44 19.29 11.03 19.28 11.67 19.32C12.34 17.58 13.89 16.72 14.61 15.02C15.9 13.9 16.22 11.81 17.78 10.95C18.66 11.02 19.57 10.37 20.27 10.95C20.66 12.32 20.07 14.27 20.04 15.93C20.21 16.44 21.31 16.02 21.85 16.16C24.02 16.36 26.07 15.51 27.96 16.16C28.34 17.05 28.14 18.54 28.18 19.77ZM14.16 20C14.16 19.87 13.98 19.75 13.93 20C13.93 20.13 14.12 20.26 14.16 20ZM17.55 22.94C17.48 23.25 16.99 23.13 16.65 23.17C16.69 22.97 16.56 22.95 16.42 22.94C16.46 22.75 16.33 22.73 16.2 22.72C16.19 22.68 16.19 22.71 16.19 22.73C16.16 22.91 16.29 22.93 16.42 22.94C16.38 23.13 16.51 23.15 16.65 23.17C16.66 23.83 17.16 24.01 17.55 24.3C17.49 23.9 18.19 23.17 17.55 22.94ZM16.19 22.73C16.2 22.72 16.2 22.72 16.2 22.72C16.2 22.75 16.2 22.74 16.19 22.73ZM15.97 21.81C15.68 22.11 15.83 22.28 16.2 22.51C16.21 22.19 16.24 21.84 15.97 21.81ZM17.78 21.81L17.78 19.55C17.51 19.58 17.14 19.51 17.1 19.77C17.59 20.19 17.25 21.44 17.78 21.81ZM17.78 15.02C17.52 15.59 16.88 15.78 16.88 16.61C18.05 17.09 18.34 15.53 17.78 15.02ZM24.11 21.13C23.89 20.44 23.51 19.92 23.43 19.1C23.46 18.8 23.47 17.46 23.21 18.19C23.43 19.25 22.58 21.39 24.11 21.13ZM25.7 21.13C25.71 20.74 25.52 20.55 25.24 20.45C25.26 20.81 25.21 21.23 25.7 21.13Z" />
			</g>
		</g>
	</g>
</svg>