<svg version="1.2" baseProfile="tiny-ps" xmlns="http://www.w3.org/2000/svg" viewBox="0 0 38 39" width="38" height="39">
	<title>Jolly UI free</title>
	<style>
		tspan { white-space:pre }
		.shp0 { fill: green } 
	</style>
	<g id="Jolly UI free">
		<g id="&lt;Group&gt;">
			<g id="&lt;Group&gt;">
				<path id="&lt;Compound Path&gt;" fill-rule="evenodd" class="shp0" d="M35.8 27.47C34.73 28.65 34.25 30.45 32.86 31.31C31.79 32.51 30.8 33.78 29.24 34.48C26.85 36.61 23.43 37.72 19.74 38.55C16.96 38.62 14.69 38.58 12.5 38.09C11.81 37.94 11.04 37.86 10.47 37.64C10.38 37.61 10.47 37.43 10.24 37.41C9.81 37.39 9.35 36.73 8.66 36.74C4.14 33.79 1.27 29.2 0.06 22.94C-0.01 19.25 -0.03 15.61 1.19 13.21C2.49 9.92 4.51 7.33 6.62 4.85C7.88 4.14 8.87 3.18 10.47 2.81C11.96 1.67 13.62 0.69 16.12 0.55L16.57 0.55C16.53 0.35 16.66 0.34 16.8 0.32C19.15 0.01 21.82 0.85 24.04 1C24.58 1.44 25.43 1.57 26.07 1.91C26.78 2.18 27.27 2.67 28.11 2.81C28.84 3.74 30.18 4.06 30.82 5.07C31.75 5.8 32.58 6.64 33.31 7.56C34.86 9.32 36 11.5 36.93 13.89C37.11 14.48 36.93 14.73 37.16 15.48C38.15 18.77 36.96 24.8 35.8 27.47ZM34.22 16.38C33.72 16.42 34.11 15.58 33.99 15.25C33.52 14.74 33.53 13.75 33.09 13.21C32.84 12.41 32.12 12.07 31.95 11.18C30.93 10.09 30.03 8.88 29.01 7.79C27.35 6.73 25.9 5.47 23.81 4.85C23.67 4.83 23.54 4.81 23.59 4.62C21.47 4.32 19.47 3.9 17.03 3.94C16.98 4.12 16.84 4.21 16.57 4.17L15.67 4.17C12.06 5.54 9.26 7.71 6.62 10.05C6.04 11.21 5.53 12.43 4.81 13.44C4.38 14.82 3.96 16.21 3.68 17.74C3.56 19.61 3.65 20.29 3.68 22.26C4.84 27.59 7.44 31.47 11.6 33.8C13.39 34.27 15.24 34.68 17.48 34.7C20.9 34.42 23.66 33.49 25.85 31.99C27.07 31.4 27.99 30.51 29.01 29.73C29.92 28.75 30.82 27.77 31.73 26.79C32.02 26.02 32.4 25.35 32.86 24.75C33.14 23.98 33.34 23.13 33.76 22.49C34.03 20.57 34.35 18.71 34.22 16.38ZM25.62 17.74C26.22 18.49 27.19 19.43 26.98 20.9C26.76 21.29 26.35 21.49 25.62 21.36C24.66 22.51 23.59 23.55 22.91 24.98C21.77 25.88 21.58 27.72 19.74 27.92C17.91 27.64 18.84 24.6 18.61 22.72C18.37 22.2 17.19 22.63 16.57 22.49C14.94 22.19 13.44 23.04 12.28 22.49C11.68 23.22 10.82 22.3 10.47 22.04C10.74 20.35 11.07 18.72 10.92 16.61C12.41 15.39 16.24 15.97 18.16 16.38C18.34 14.08 17.52 10.77 19.29 10.05L19.74 10.05C20.61 10.69 20.56 12.24 21.55 12.76C21.88 13.94 22.95 14.38 23.36 15.48C24.22 16.13 24.95 16.9 25.62 17.74ZM14.99 20C13.77 20.16 13.13 19.75 12.73 19.1L12.73 20.45C13.42 20.24 15.02 20.94 14.99 20ZM18.38 18.42L17.93 18.42C16.69 18.36 18.43 19.06 18.38 18.42ZM18.38 19.32C18.4 19.71 18.33 20.02 18.16 20.23C18.79 20.59 18.78 19.25 18.38 19.32ZM20.65 15.48C20.66 15.09 20.47 14.9 20.19 14.8C20.21 15.15 20.16 15.58 20.65 15.48ZM24.26 20C24.33 19.41 24.18 19.03 23.59 19.1C23.55 19.66 23.93 19.8 24.26 20Z" />
			</g>
		</g>
	</g>
</svg>